<svg xmlns="http://www.w3.org/2000/svg" width="34.625" height="32.935" viewBox="0 0 34.625 32.935">
  <path id="LINE" d="M198.986,1226.6a12.462,12.462,0,0,0,3.712-8.63c0-7.732-7.767-14.022-17.312-14.022s-17.313,6.29-17.313,14.022c0,6.936,6.159,12.741,14.479,13.839.563.122,1.33.373,1.525.854a3.529,3.529,0,0,1,.056,1.561s-.2,1.22-.247,1.482c-.075.434-.348,1.708,1.5.929s9.97-5.859,13.6-10.036h0m-20.378-4.026h-3.44a.908.908,0,0,1-.908-.908V1214.8a.908.908,0,1,1,1.815,0v5.964h2.532a.906.906,0,1,1,0,1.812Zm3.558-.908a.907.907,0,1,1-1.815,0V1214.8a.907.907,0,1,1,1.815,0Zm8.281,0a.908.908,0,0,1-.621.861.984.984,0,0,1-.287.047.916.916,0,0,1-.726-.362l-3.525-4.794v4.248a.908.908,0,1,1-1.816,0V1214.8a.909.909,0,0,1,.62-.861.992.992,0,0,1,.287-.047.914.914,0,0,1,.725.362l3.526,4.794V1214.8a.908.908,0,1,1,1.815,0v6.868Zm5.566-4.338a.906.906,0,1,1,0,1.812h-2.531v1.622h2.531a.906.906,0,1,1,0,1.812h-3.44a.908.908,0,0,1-.908-.908v-3.434h0V1214.8a.91.91,0,0,1,.908-.908h3.44a.908.908,0,1,1,0,1.816h-2.531v1.622Z" transform="translate(-168.073 -1203.95)" fill="#fff" fill-rule="evenodd"/>
</svg>
