<svg id="Buy_Coke_icon" data-name="Buy Coke icon" xmlns="http://www.w3.org/2000/svg" width="107" height="146.129" viewBox="0 0 107 146.129">
  <g id="Group_313" data-name="Group 313">
    <path id="Path_677" data-name="Path 677" d="M93.319,24.631s-.081-.643-8.319-.643-8.319.643-8.319.643a2.579,2.579,0,0,1-2.572-2.571V13.214a2.579,2.579,0,0,1,2.572-2.571S76.681,10,85,10s8.319.643,8.319.643a2.579,2.579,0,0,1,2.572,2.571V22.06A2.579,2.579,0,0,1,93.319,24.631Z" transform="translate(-61.5 -10)" fill="#fff"/>
    <g id="Group_311" data-name="Group 311" transform="translate(0 7.315)">
      <path id="Path_678" data-name="Path 678" d="M103.305,90.982a.1.1,0,0,0,.062-.1.092.092,0,0,0-.041-.09.262.262,0,0,0-.13-.024h-.091V91h.1A.322.322,0,0,0,103.305,90.982Z" transform="translate(-62.617 -19.478)" fill="#fff"/>
      <path id="Path_679" data-name="Path 679" d="M91.982,80.447c-.966,1.066-1.524,2.255-1.108,2.573.159.12.525.14,1.195-.46A5.336,5.336,0,0,0,93.48,80.6a2.708,2.708,0,0,0,.293-1.546A5.527,5.527,0,0,0,91.982,80.447Z" transform="translate(-61.851 -19.183)" fill="#fff"/>
      <path id="Path_680" data-name="Path 680" d="M71.182,84.041a1.543,1.543,0,0,1-.514-.568c-.012-.022-.027,0-.041.014s-.086.115-.584.845-1.234,2.228-.543,2.483c.441.165,1.185-.614,1.588-1.127a13.248,13.248,0,0,0,.836-1.255c.018-.044,0-.054-.024-.063A3.041,3.041,0,0,1,71.182,84.041Z" transform="translate(-60.807 -19.307)" fill="#fff"/>
      <path id="Path_681" data-name="Path 681" d="M71.151,83.067c-.006.679.841.872.949.877a.118.118,0,0,0,.135-.055,6.067,6.067,0,0,0,.267-.6c.128-.338.292-1-.049-1.256C72.086,81.758,71.154,82.4,71.151,83.067Z" transform="translate(-60.887 -19.242)" fill="#fff"/>
      <path id="Path_682" data-name="Path 682" d="M102.742,91.007a.488.488,0,0,0,.139.347.481.481,0,0,0,.341.138.475.475,0,0,0,.479-.485.478.478,0,0,0-.479-.479.476.476,0,0,0-.48.479ZM103,90.7h.212a.487.487,0,0,1,.169.021.153.153,0,0,1,.1.155.128.128,0,0,1-.062.12.223.223,0,0,1-.087.033.142.142,0,0,1,.105.059.191.191,0,0,1,.033.1v.044c0,.012,0,.027,0,.043s0,.029.006.033l0,.007h-.1v0s0,0,0-.006V91.23c0-.069-.017-.116-.058-.137a.227.227,0,0,0-.118-.022h-.086v.241H103Z" transform="translate(-62.617 -19.482)" fill="#fff"/>
      <path id="Path_683" data-name="Path 683" d="M79.084,86.319c.139-.16.295-.373.481-.627.563-.772,2.117-3.479,2.117-3.479a.229.229,0,0,0-.207-.2c-.215-.01-.571.063-1.285.956a16.681,16.681,0,0,0-1.67,2.343c-.441.807-.636,1.374-.38,1.53a.375.375,0,0,0,.266.027A1.6,1.6,0,0,0,79.084,86.319Z" transform="translate(-61.248 -19.284)" fill="#fff"/>
      <path id="Path_684" data-name="Path 684" d="M94.339,85.373c-.365-.276-1.3.372-1.3,1.032a1.143,1.143,0,0,0,.817,1.027c.091.025.121.022.167-.051a6.078,6.078,0,0,0,.368-.753C94.518,86.292,94.682,85.632,94.339,85.373Z" transform="translate(-61.911 -19.344)" fill="#fff"/>
      <path id="Path_685" data-name="Path 685" d="M99.214,90.2c.172-.042.366-.2.663-.545.139-.159.293-.386.475-.639.508-.695,1.787-2.88,2.042-3.322a.37.37,0,0,0,.04-.094.226.226,0,0,0-.206-.2c-.216-.01-.51.032-1.279.884a11.576,11.576,0,0,0-1.637,2.326c-.442.807-.618,1.406-.365,1.561A.38.38,0,0,0,99.214,90.2Z" transform="translate(-62.617 -19.386)" fill="#fff"/>
      <path id="Path_686" data-name="Path 686" d="M106.773,99.806h0l.613-20.215c0-18.249-3.6-24.818-6.061-30.033-4.295-9.088-6.127-11.067-7.059-13.543-.986-2.617-1.1-7.088-1.093-9.378a1.133,1.133,0,0,0,.078-2.261V19.348a2,2,0,1,0-4,0v4.482c-1.3-.059-3.043-.1-5.365-.1-2.421,0-4.2.043-5.519.106v-4.49a2,2,0,1,0-4,0v5.06a1.13,1.13,0,0,0,.232,2.229c.01,2.29-.107,6.761-1.093,9.378-.933,2.476-2.765,4.455-7.059,13.543-2.465,5.215-6.061,11.784-6.061,30.033L61,99.806l1.715,18.944a21.528,21.528,0,0,1,0,4.267c-.25,1.93-1.249,5.535-1.2,7.161a28.773,28.773,0,0,0,.4,4.012c.2,1.27,1.851,7.313,2.151,7.923a4.8,4.8,0,0,0,.9,1.168,57.269,57.269,0,0,0,1.848,6.349,23.475,23.475,0,0,0,3.247,4.672,7.963,7.963,0,0,0,4.3,1.676,6.044,6.044,0,0,0,4.446-1.626c.65-.508,1.9-3.1,3-3.3a12.943,12.943,0,0,1,2.09-.2l0-.233v.233a12.943,12.943,0,0,1,2.09.2c1.1.2,2.347,2.793,3,3.3a6.044,6.044,0,0,0,4.446,1.626,7.963,7.963,0,0,0,4.3-1.676,23.475,23.475,0,0,0,3.247-4.672,57.271,57.271,0,0,0,1.848-6.349,4.8,4.8,0,0,0,.9-1.168c.3-.61,1.948-6.653,2.151-7.923a28.916,28.916,0,0,0,.4-4.012c.05-1.626-.949-5.232-1.2-7.161a21.528,21.528,0,0,1,0-4.267ZM69.191,51.9l.387-.811c2.431-5.145,4.009-7.877,5.162-9.872a26.4,26.4,0,0,0,2.011-3.938,29.287,29.287,0,0,0,1.3-8.558H89.716a29.275,29.275,0,0,0,1.3,8.557,26.271,26.271,0,0,0,2.011,3.939c1.152,1.995,2.73,4.727,5.162,9.872l.387.811c1.883,3.946,4.13,8.663,4.98,18.675H64.211C65.062,60.564,67.309,55.848,69.191,51.9ZM98,80.307a29.764,29.764,0,0,0-2.472,4.075,6.526,6.526,0,0,0,.8-.578,23.259,23.259,0,0,0,1.963-1.865,21.416,21.416,0,0,0,1.672-1.962,4.493,4.493,0,0,0,.491-.051,21.356,21.356,0,0,1-1.842,2.217c-.615.634-1.283,1.316-1.864,1.814a15.567,15.567,0,0,1-1.635,1.237s-1.355,2.77-.62,2.95c.434.1,1.287-1.233,1.287-1.233A30.662,30.662,0,0,1,97.566,84.4c.916-1.061,1.7-1.672,2.493-1.686a.941.941,0,0,1,.73.49l.216-.34h1.334s-2.483,4.285-2.682,4.609c-.18.29-.382.849.209.5a8.531,8.531,0,0,0,1.745-2.007h.463a15.624,15.624,0,0,1-1.407,1.882c-.731.821-1.621,1.57-2.247,1.5-.734-.087-.5-1.066-.5-1.066s-1.05,1.136-1.775,1.055c-.978-.11-.681-1.341-.681-1.341s-1.107,1.385-1.862,1.341c-1.183-.069-.887-1.538-.558-2.564.177-.551.34-.985.34-.985a3.511,3.511,0,0,1-.369.069c-.132.019-.372.033-.372.033a16.377,16.377,0,0,1-.886,1.416c-.394.533-2.068,2.363-3.055,2-.912-.339-.612-1.759-.08-2.886.773-1.643,2.951-4.009,4.208-3.7,1.3.321.029,2.737.029,2.737a.019.019,0,0,0,.014.015.526.526,0,0,0,.25-.013,2.644,2.644,0,0,0,.478-.146A28.226,28.226,0,0,1,96.349,80.7c1.445-1.823,4.329-4.966,5.462-4.206.277.185.151.829-.221,1.611a5.119,5.119,0,0,1-.511.136,4.244,4.244,0,0,0,.464-1.119C101.713,76.183,99.55,78.169,98,80.307Zm3.807,8.534a.526.526,0,0,1-.156.384.525.525,0,0,1-.755,0,.529.529,0,0,1-.156-.384.522.522,0,0,1,.158-.38.525.525,0,0,1,.753,0A.519.519,0,0,1,101.811,88.841ZM76.057,86.065c-.858-.223-.305-1.672-.305-1.672-.1.04-1.952,2.166-3.254,1.657-1.361-.533-.657-2.313-.4-2.849.219-.451.462-.891.462-.891s-.21.061-.339.091-.327.069-.327.069-.645,1.066-1.041,1.6-2.068,2.361-3.055,2-.744-1.768-.187-2.885c.9-1.81,3.031-4.032,4.316-3.7s.224,2.478.224,2.478.258.035.875-.4c.894-.617,2.068-2.281,3.342-2.086.6.09,1.155.714.393,1.9-.244.38-.653.721-.967.384-.195-.207-.027-.589.179-.85a.8.8,0,0,1,.687-.32s.21-.491-.324-.481c-.434.009-1.529,1.036-2.149,2.073-.568.952-1.428,2.576-.563,2.929.792.325,2.3-1.5,3-2.448s2.287-3.115,3.619-3.2a.886.886,0,0,1,.732.394l.155-.248h1.331s-2.51,4.265-2.706,4.587c-.155.253-.358.821.209.5a10.778,10.778,0,0,0,1.751-1.865h.463s-2.321,3.413-3.634,3.258c-.731-.085-.515-1.007-.515-1.007S77,86.309,76.057,86.065Zm7.481-3.427c2.9-4.722,6.31-6.171,7.418-6.332s1.465.333,1.465.333a4.694,4.694,0,0,1,2.1-.355c1.353.093,2.4,1.065,3.776,1.746-.36.355-.7.721-1.011,1.064-1.02-.533-1.765-1.182-2.544-1.589a2.858,2.858,0,0,0-1.82-.465,1.626,1.626,0,0,0-.247.06s.309,1.072-.917,2.873c-1.245,1.826-2.371,1.816-2.692,1.31-.336-.528.1-1.608.822-2.567a9.15,9.15,0,0,1,2.09-1.838s-.426-.263-1.47.339a14.789,14.789,0,0,0-4.393,4.333,12.015,12.015,0,0,0-2.179,4.662c-.236,1.019-.02,2.109,1.091,2.109S87.432,86.6,87.8,86c.675-1.117,1.118-2.826.2-2.591a1.95,1.95,0,0,0-1.056,1.12,4.75,4.75,0,0,0-.333.989,3.851,3.851,0,0,0-.9.533,6.729,6.729,0,0,0-.852.769,5.534,5.534,0,0,1,.642-2.132,3.424,3.424,0,0,1,2.471-1.975c.6-.05,1.378.465.719,2.37s-2.6,4.218-4.646,4.249C82.152,89.358,80.917,86.91,83.538,82.637ZM82.7,80.789l.713-1.176h1.265l-.714,1.176ZM62.723,85.98c.079-3.768,3.21-7.163,5.551-8.692a5.208,5.208,0,0,1,3.208-1.057,1.1,1.1,0,0,1,.776,1.624c-.6,1.363-1.425,1.248-1.4.6a1.074,1.074,0,0,1,.5-.835,1.01,1.01,0,0,1,.487-.122c.118-.1.209-.847-.755-.6a7.757,7.757,0,0,0-3.229,2.449,13.5,13.5,0,0,0-3.252,6.06c-.2,1.146-.064,3.23,2.6,3.2,2.261-.018,5.6-1.533,8.659-1.505a5.778,5.778,0,0,1,3.033.842,8.388,8.388,0,0,1,2.082,1.718,5.457,5.457,0,0,0-3.354-.992,2.051,2.051,0,0,0-1.635.9,3.216,3.216,0,0,0-3.07-1.443c-2.512.03-5,1.21-6.978,1.21A3.046,3.046,0,0,1,62.723,85.98ZM103.3,99.639l-1.7,18.788a24.608,24.608,0,0,0,.014,5.05c.115.883.335,1.934.568,3.048a27.331,27.331,0,0,1,.6,3.544,25.1,25.1,0,0,1-.353,3.554c-.136.849-1.426,5.662-1.848,6.917a1.941,1.941,0,0,1-.143.158l-.777.724-.226,1.018a57.082,57.082,0,0,1-1.572,5.591,27.388,27.388,0,0,1-2.325,3.509,4.48,4.48,0,0,1-2.419.918c-.057,0-.116.008-.172.008a2.643,2.643,0,0,1-1.646-.75c-.1-.138-.254-.36-.374-.533-.936-1.359-2.218-3.218-4.328-3.608a16.246,16.246,0,0,0-2.711-.26h0a16.277,16.277,0,0,0-2.713.26c-2.109.389-3.391,2.249-4.327,3.608-.118.173-.272.4-.373.533a2.645,2.645,0,0,1-1.646.75c-.056,0-.114,0-.173-.009a4.462,4.462,0,0,1-2.417-.915,27.4,27.4,0,0,1-2.344-3.547c-.268-.593-1.025-3.362-1.554-5.555l-.25-1.04-.777-.724c-.027-.027-.078-.085-.119-.136-.421-1.254-1.714-6.068-1.848-6.916a25.347,25.347,0,0,1-.353-3.556,27.215,27.215,0,0,1,.6-3.546c.232-1.112.452-2.163.566-3.046a24.763,24.763,0,0,0,.01-5.108l-1.7-18.78L64.338,95.3h39.089Zm.651-22.049a5.554,5.554,0,0,1-5.058,2.087c.341-.419.677-.8.992-1.134a5.689,5.689,0,0,0,3.476-1.044,8.483,8.483,0,0,0,1.525-1.277A6.917,6.917,0,0,1,103.947,77.59Z" transform="translate(-60.383 -17.315)" fill="#fff"/>
      <path id="Path_687" data-name="Path 687" d="M93.045,87.454a2.074,2.074,0,0,1-.483-.583c-.011-.023-.027-.006-.04.014a8.753,8.753,0,0,0-.569.8c-.5.73-1.259,2.238-.567,2.494.441.163,1.179-.611,1.581-1.125a9.78,9.78,0,0,0,.741-1.128c.02-.043,0-.055-.022-.063A2.916,2.916,0,0,1,93.045,87.454Z" transform="translate(-61.855 -19.408)" fill="#fff"/>
    </g>
    <g id="Group_312" data-name="Group 312" transform="translate(16.945 31.89)">
      <path id="Path_688" data-name="Path 688" d="M82.072,62.092a3.136,3.136,0,1,0,3.136,3.136A3.136,3.136,0,0,0,82.072,62.092Zm0,5.085a1.949,1.949,0,1,1,1.95-1.949A1.951,1.951,0,0,1,82.072,67.177Z" transform="translate(-78.445 -43)" fill="#fff"/>
      <path id="Path_689" data-name="Path 689" d="M88.419,51.933a3.136,3.136,0,1,0,3.136,3.136A3.136,3.136,0,0,0,88.419,51.933Zm0,5.085a1.95,1.95,0,1,1,1.95-1.949A1.951,1.951,0,0,1,88.419,57.018Z" transform="translate(-78.445 -43)" fill="#fff"/>
      <path id="Path_690" data-name="Path 690" d="M82.267,43a3.822,3.822,0,1,0,3.822,3.822A3.822,3.822,0,0,0,82.267,43Zm0,6.2a2.376,2.376,0,1,1,2.376-2.376A2.379,2.379,0,0,1,82.267,49.2Z" transform="translate(-78.445 -43)" fill="#fff"/>
    </g>
  </g>
  <g id="Group_397" data-name="Group 397" transform="translate(62 56.129)">
    <g id="Group_396" data-name="Group 396">
      <path id="Path_777" data-name="Path 777" d="M118.679,84.91l-5.134-5.134H81.455L76,85.231v69.634L81.134,160h32.09l5.455-5.455Z" transform="translate(-76 -72)" fill="none" stroke="#fff" stroke-linecap="round" stroke-linejoin="round" stroke-width="4"/>
      <line id="Line_238" data-name="Line 238" x1="42.358" transform="translate(0 18.687)" fill="none" stroke="#fff" stroke-linecap="round" stroke-linejoin="round" stroke-width="4"/>
      <line id="Line_239" data-name="Line 239" x1="42.358" transform="translate(0 77.09)" fill="none" stroke="#fff" stroke-linecap="round" stroke-linejoin="round" stroke-width="4"/>
      <rect id="Rectangle_566" data-name="Rectangle 566" width="43" height="7.776" rx="2.567" fill="none" stroke="#fff" stroke-linecap="round" stroke-linejoin="round" stroke-width="4"/>
      <path id="Coke_Wave" data-name="Coke Wave" d="M105.877,112.5c-3.227-6.475-5.342-12.368-5.342-18.44A29.543,29.543,0,0,1,100.964,89H96.208v.006c0,7.379,4.87,13.189,7.543,21.515a38.789,38.789,0,0,1,1.62,11.613c0,11.407-4.637,21.746-7.135,26.686h8.395a74.927,74.927,0,0,0,3.036-20.024,35.6,35.6,0,0,0-3.79-16.291" transform="translate(-76 -72)" fill="#fff"/>
    </g>
  </g>
</svg>
