<svg id="Group_149" data-name="Group 149" xmlns="http://www.w3.org/2000/svg" width="25" height="25" viewBox="0 0 25 25">
  <g id="Group_145" data-name="Group 145">
    <path id="Path_505" data-name="Path 505" d="M10.8,25A10.8,10.8,0,1,1,21.6,14.2,10.755,10.755,0,0,1,10.8,25Zm0-20.6a9.8,9.8,0,1,0,9.8,9.8A9.816,9.816,0,0,0,10.8,4.4Z" fill="#fff"/>
  </g>
  <g id="Group_146" data-name="Group 146">
    <path id="Path_506" data-name="Path 506" d="M19.6,20.1a.6.6,0,0,1-.4-.1.471.471,0,0,1-.1-.6,10.019,10.019,0,0,0,1.4-5.1,9.816,9.816,0,0,0-9.8-9.8,8.28,8.28,0,0,0-5,1.4.661.661,0,0,1-.6-.1A.471.471,0,0,1,5,5.2,10.609,10.609,0,0,1,14.2,0,10.755,10.755,0,0,1,25,10.8,10.609,10.609,0,0,1,19.8,20,.349.349,0,0,1,19.6,20.1ZM10.8,3.4A10.819,10.819,0,0,1,21.6,14.2a9.366,9.366,0,0,1-.7,3.7A9.534,9.534,0,0,0,24,10.8,9.816,9.816,0,0,0,14.2,1,9.377,9.377,0,0,0,7.1,4.1,11.56,11.56,0,0,1,10.8,3.4Z" fill="#fff"/>
  </g>
  <g id="Group_147" data-name="Group 147">
    <path id="Path_507" data-name="Path 507" d="M14.3,14.7h-7a.5.5,0,0,1,0-1h7a.472.472,0,0,1,.5.5A.536.536,0,0,1,14.3,14.7Z" fill="#fff"/>
  </g>
  <g id="Group_148" data-name="Group 148">
    <path id="Path_508" data-name="Path 508" d="M10.8,18.2a.472.472,0,0,1-.5-.5v-7a.5.5,0,0,1,1,0v7A.472.472,0,0,1,10.8,18.2Z" fill="#fff"/>
  </g>
</svg>
