<svg xmlns="http://www.w3.org/2000/svg" xmlns:xlink="http://www.w3.org/1999/xlink" width="271" height="280" viewBox="0 0 271 280">
  <defs>
    <clipPath id="clip-path">
      <path id="Masking" d="M20,0H251a20,20,0,0,1,20,20V280a0,0,0,0,1,0,0H0a0,0,0,0,1,0,0V20A20,20,0,0,1,20,0Z" fill="none"/>
    </clipPath>
  </defs>
  <g id="Image" clip-path="url(#clip-path)">
    
    <g id="Illustration" transform="translate(102.5 162.869)">
      <path id="Path_640" data-name="Path 640" d="M275.117,470.532a.133.133,0,0,0,.083-.127c0-.06-.016-.1-.055-.12a.343.343,0,0,0-.172-.033h-.122v.3h.13A.41.41,0,0,0,275.117,470.532Z" transform="translate(-218.471 -372.507)" fill="#fff"/>
      <path id="Path_641" data-name="Path 641" d="M266.368,462.5c-1.29,1.418-2.033,3-1.479,3.424.212.161.7.187,1.6-.612a7.136,7.136,0,0,0,1.882-2.608,3.594,3.594,0,0,0,.39-2.058A7.364,7.364,0,0,0,266.368,462.5Z" transform="translate(-224.616 -378.488)" fill="#fff"/>
      <path id="Path_642" data-name="Path 642" d="M249.676,465.028a2.061,2.061,0,0,1-.687-.756c-.016-.031-.034-.006-.054.018s-.115.152-.779,1.125-1.646,2.965-.726,3.305c.589.219,1.581-.818,2.118-1.5a17.72,17.72,0,0,0,1.118-1.67c.024-.058,0-.071-.033-.083A4.118,4.118,0,0,1,249.676,465.028Z" transform="translate(-235.385 -376.238)" fill="#fff"/>
      <path id="Path_643" data-name="Path 643" d="M248.64,464.494c-.008.9,1.122,1.16,1.267,1.167a.156.156,0,0,0,.179-.073,7.688,7.688,0,0,0,.356-.8c.171-.451.39-1.329-.065-1.673C249.889,462.751,248.645,463.611,248.64,464.494Z" transform="translate(-234.414 -377)" fill="#fff"/>
      <path id="Path_644" data-name="Path 644" d="M274.553,470.689a.633.633,0,0,0,.639.646.635.635,0,0,0,.641-.646.635.635,0,0,0-.641-.636.632.632,0,0,0-.639.636Zm.34-.406h.283a.679.679,0,0,1,.225.026.2.2,0,0,1,.128.206.173.173,0,0,1-.083.161.263.263,0,0,1-.115.044.193.193,0,0,1,.14.078.253.253,0,0,1,.044.128v.058l0,.058c0,.024,0,.037.008.044l0,.008h-.135v-.006l-.006-.008,0-.028v-.067c0-.093-.023-.154-.078-.183a.3.3,0,0,0-.156-.028h-.115v.32h-.143Z" transform="translate(-218.657 -372.631)" fill="#fff"/>
      <path id="Path_645" data-name="Path 645" d="M255.692,468.8c.185-.214.394-.5.641-.834.752-1.029,2.826-4.631,2.826-4.631a.307.307,0,0,0-.277-.266c-.288-.013-.763.083-1.716,1.272a22.279,22.279,0,0,0-2.227,3.119c-.589,1.074-.849,1.829-.508,2.036a.506.506,0,0,0,.355.036A2.148,2.148,0,0,0,255.692,468.8Z" transform="translate(-230.98 -376.979)" fill="#fff"/>
      <path id="Path_646" data-name="Path 646" d="M268.329,465.857c-.486-.367-1.728.495-1.737,1.373a1.525,1.525,0,0,0,1.09,1.368c.122.032.163.029.223-.068a7.958,7.958,0,0,0,.491-1C268.568,467.081,268.786,466.2,268.329,465.857Z" transform="translate(-223.449 -375.296)" fill="#fff"/>
      <path id="Path_647" data-name="Path 647" d="M271.856,472.237c.229-.055.488-.269.885-.725.185-.211.39-.515.633-.85.678-.925,2.385-3.834,2.725-4.422a.5.5,0,0,0,.054-.125.3.3,0,0,0-.275-.265c-.288-.013-.68.042-1.706,1.178a15.348,15.348,0,0,0-2.185,3.094c-.589,1.076-.823,1.873-.486,2.079A.514.514,0,0,0,271.856,472.237Z" transform="translate(-220.668 -375.248)" fill="#fff"/>
      <path id="Path_648" data-name="Path 648" d="M304.031,523.091h0l.849-27.712c0-25.02-4.979-34.027-8.391-41.175-5.946-12.459-8.482-15.173-9.774-18.568-1.365-3.585-1.527-9.716-1.511-12.857a1.552,1.552,0,0,0,.108-3.1v-6.895a2.769,2.769,0,1,0-5.538,0v6.145c-1.806-.079-4.213-.135-7.428-.135-3.351,0-5.812.06-7.641.146v-6.157a2.769,2.769,0,1,0-5.538,0v6.938a1.547,1.547,0,0,0-1.207,1.494,1.563,1.563,0,0,0,1.527,1.56c.016,3.141-.147,9.271-1.511,12.857-1.292,3.4-3.828,6.109-9.774,18.568-3.413,7.148-8.391,16.155-8.391,41.175l.849,27.712,2.375,25.973a29.34,29.34,0,0,1,0,5.848c-.346,2.646-1.729,7.589-1.66,9.818a38.832,38.832,0,0,0,.549,5.5c.28,1.741,2.562,10.026,2.976,10.861a6.6,6.6,0,0,0,1.246,1.6s1.729,7.1,2.559,8.7,3.527,5.709,4.5,6.406a11.09,11.09,0,0,0,5.947,2.3,8.4,8.4,0,0,0,6.155-2.229c.9-.7,2.628-4.247,4.149-4.524a18.05,18.05,0,0,1,2.894-.279l0-.32,0,.32a18.037,18.037,0,0,1,2.894.279c1.521.277,3.25,3.828,4.149,4.524a8.408,8.408,0,0,0,6.155,2.229,11.077,11.077,0,0,0,5.947-2.3c.968-.7,3.666-4.805,4.5-6.406s2.559-8.7,2.559-8.7a6.6,6.6,0,0,0,1.246-1.6c.414-.836,2.7-9.12,2.978-10.861a39.331,39.331,0,0,0,.549-5.5c.069-2.229-1.315-7.172-1.66-9.818a29.2,29.2,0,0,1,0-5.848ZM252,457.416l.535-1.113c3.366-7.053,5.551-10.8,7.146-13.533a36.174,36.174,0,0,0,2.784-5.4c1.273-3.343,1.685-8.115,1.8-11.732h16.148c.114,3.618.527,8.387,1.8,11.732a36.013,36.013,0,0,0,2.784,5.4c1.6,2.735,3.78,6.479,7.146,13.533l.535,1.113c2.607,5.41,5.717,11.877,6.9,25.6h-54.47C246.287,469.292,249.4,462.826,252,457.416Zm39.888,38.943a40.664,40.664,0,0,0-3.422,5.587,9.2,9.2,0,0,0,1.105-.792,31.983,31.983,0,0,0,2.718-2.558,29.71,29.71,0,0,0,2.314-2.688c.23-.013.458-.036.678-.07a29.192,29.192,0,0,1-2.551,3.038c-.851.868-1.776,1.8-2.58,2.487a21.568,21.568,0,0,1-2.265,1.7s-1.875,3.8-.857,4.044c.6.143,1.78-1.69,1.78-1.69a42.179,42.179,0,0,1,2.472-3.439c1.27-1.454,2.36-2.292,3.451-2.31a1.3,1.3,0,0,1,1.01.672l.3-.467h1.846s-3.438,5.876-3.712,6.32c-.25.4-.53,1.163.29.688a11.73,11.73,0,0,0,2.415-2.752h.641a21.471,21.471,0,0,1-1.948,2.579c-1.012,1.126-2.244,2.153-3.113,2.052-1.015-.118-.7-1.46-.7-1.46s-1.455,1.556-2.457,1.446c-1.353-.149-.943-1.838-.943-1.838s-1.532,1.9-2.576,1.838c-1.637-.094-1.228-2.109-.772-3.516.245-.756.47-1.35.47-1.35s-.163.042-.511.093c-.184.027-.517.047-.517.047a22.238,22.238,0,0,1-1.226,1.94c-.546.732-2.862,3.241-4.23,2.74-1.262-.466-.846-2.411-.11-3.957,1.07-2.252,4.085-5.495,5.825-5.071,1.8.441.04,3.754.04,3.754a.027.027,0,0,0,.019.019.739.739,0,0,0,.346-.016,3.8,3.8,0,0,0,.662-.2A38.609,38.609,0,0,1,289.6,496.9c2-2.5,5.992-6.809,7.562-5.767.383.255.21,1.137-.306,2.209-.227.072-.466.136-.707.187a5.8,5.8,0,0,0,.643-1.535C297.027,490.7,294.033,493.428,291.892,496.358Zm5.271,11.7a.714.714,0,0,1-.216.527.732.732,0,0,1-1.044,0,.721.721,0,0,1-.216-.527.708.708,0,0,1,.219-.521.7.7,0,0,1,.519-.219.743.743,0,0,1,.738.74Zm-35.656-3.806c-1.186-.305-.422-2.292-.422-2.292-.134.055-2.7,2.97-4.505,2.271-1.885-.73-.91-3.172-.548-3.906.3-.618.638-1.22.638-1.22s-.29.084-.467.125-.454.094-.454.094-.894,1.462-1.44,2.193-2.863,3.236-4.23,2.735-1.03-2.424-.259-3.953c1.244-2.482,4.2-5.527,5.975-5.071,1.8.459.313,3.4.313,3.4s.356.049,1.212-.542c1.236-.847,2.863-3.128,4.628-2.86.825.123,1.6.98.543,2.6-.338.522-.9.99-1.339.527-.269-.282-.037-.806.248-1.165a1.115,1.115,0,0,1,.952-.44s.29-.673-.448-.659c-.6.011-2.117,1.418-2.974,2.842-.786,1.3-1.977,3.53-.78,4.015,1.1.445,3.179-2.05,4.147-3.355s3.166-4.271,5.009-4.391a1.229,1.229,0,0,1,1.014.542l.214-.342h1.842s-3.474,5.848-3.746,6.29c-.214.347-.495,1.126.29.688a14.831,14.831,0,0,0,2.423-2.557h.641s-3.213,4.679-5.032,4.468c-1.012-.117-.711-1.381-.711-1.381S262.81,504.588,261.507,504.252Zm10.359-4.7c4.014-6.473,8.736-8.46,10.27-8.682s2.029.457,2.029.457a6.542,6.542,0,0,1,2.912-.487c1.872.128,3.318,1.46,5.225,2.395-.5.487-.97.988-1.4,1.457-1.413-.73-2.443-1.621-3.521-2.179a4,4,0,0,0-2.52-.636,2.288,2.288,0,0,0-.342.083s.429,1.47-1.27,3.939c-1.724,2.5-3.284,2.49-3.729,1.8-.464-.724.134-2.2,1.139-3.519a12.606,12.606,0,0,1,2.892-2.521s-.588-.36-2.035.464a20.361,20.361,0,0,0-6.081,5.939,16.377,16.377,0,0,0-3.018,6.393c-.325,1.4-.027,2.891,1.51,2.891s3.329-2.362,3.833-3.185c.935-1.53,1.547-3.874.272-3.551a2.691,2.691,0,0,0-1.461,1.536,6.458,6.458,0,0,0-.461,1.356,5.355,5.355,0,0,0-1.249.73,9.163,9.163,0,0,0-1.178,1.054,7.536,7.536,0,0,1,.886-2.923,4.736,4.736,0,0,1,3.422-2.708c.83-.07,1.908.638.994,3.25s-3.6,5.782-6.432,5.824C269.947,508.767,268.235,505.412,271.866,499.554Zm-1.157-2.534.988-1.613h1.751l-.989,1.613Zm-27.66,7.117c.109-5.165,4.444-9.82,7.684-11.917a7.268,7.268,0,0,1,4.442-1.447A1.5,1.5,0,0,1,256.249,493c-.828,1.871-1.972,1.712-1.933.819a1.481,1.481,0,0,1,.7-1.145,1.435,1.435,0,0,1,.675-.167c.163-.14.288-1.162-1.047-.824s-2.939,1.656-4.47,3.356-3.915,4.927-4.5,8.309c-.274,1.572-.089,4.429,3.6,4.393,3.131-.026,7.749-2.1,11.989-2.064a8.048,8.048,0,0,1,4.2,1.155,11.612,11.612,0,0,1,2.884,2.355,7.626,7.626,0,0,0-4.644-1.361,2.844,2.844,0,0,0-2.264,1.236c-.706-1.236-2.1-2-4.251-1.979-3.477.042-6.927,1.66-9.661,1.66A4.2,4.2,0,0,1,243.048,504.137Zm56.17,18.726-2.354,25.757a33.391,33.391,0,0,0,.019,6.925c.159,1.21.464,2.651.786,4.177a37.14,37.14,0,0,1,.835,4.857,33.874,33.874,0,0,1-.488,4.873c-.187,1.165-1.974,7.763-2.559,9.482a2.643,2.643,0,0,1-.2.217l-1.076.993-.313,1.4a78,78,0,0,1-2.177,7.665,37.694,37.694,0,0,1-3.218,4.812,6.258,6.258,0,0,1-3.35,1.257c-.079.006-.16.01-.237.01a3.66,3.66,0,0,1-2.278-1.028c-.14-.188-.353-.493-.519-.73-1.3-1.862-3.069-4.411-5.992-4.946a22.848,22.848,0,0,0-3.753-.355h0a22.876,22.876,0,0,0-3.756.355c-2.92.535-4.7,3.084-5.991,4.946-.164.238-.377.543-.517.73a3.668,3.668,0,0,1-2.278,1.028c-.079,0-.158,0-.238-.01a6.214,6.214,0,0,1-3.347-1.256,37.462,37.462,0,0,1-3.245-4.864c-.371-.811-1.42-4.609-2.153-7.615l-.346-1.424-1.075-.993c-.037-.037-.108-.117-.166-.187-.582-1.718-2.37-8.319-2.557-9.481a34.249,34.249,0,0,1-.49-4.877,36.941,36.941,0,0,1,.836-4.86c.322-1.525.625-2.965.785-4.174a33.553,33.553,0,0,0,.011-7l-2.352-25.745-.179-5.877H299.4Zm.9-30.228c-1.394,1.59-4.009,3.455-7,2.86.472-.574.938-1.1,1.373-1.553a7.935,7.935,0,0,0,4.813-1.432,11.706,11.706,0,0,0,2.112-1.752A9.483,9.483,0,0,1,300.121,492.635Z" transform="translate(-239.808 -410)" fill="#fff"/>
      <path id="Path_649" data-name="Path 649" d="M267.594,467.835a2.744,2.744,0,0,1-.644-.777c-.016-.029-.036-.006-.054.019a11.964,11.964,0,0,0-.76,1.065c-.662.97-1.679,2.978-.756,3.318.589.217,1.573-.813,2.11-1.5a12.994,12.994,0,0,0,.987-1.5c.028-.058,0-.075-.028-.084A3.888,3.888,0,0,1,267.594,467.835Z" transform="translate(-224.424 -374.504)" fill="#fff"/>
      <path id="Path_789" data-name="Path 789" d="M627.272,367.211H612.385a13.588,13.588,0,1,0-20.538-16.789,13.585,13.585,0,1,0-20.527,16.789h-14.9A3.552,3.552,0,0,0,553,370.872V379.7a3.552,3.552,0,0,0,3.423,3.661h3.695v40.461a3.608,3.608,0,0,0,3.543,3.661h56.374a3.608,3.608,0,0,0,3.543-3.661V383.358h3.695A3.552,3.552,0,0,0,630.7,379.7v-8.824A3.552,3.552,0,0,0,627.272,367.211Zm-33.959-11.092a10.677,10.677,0,1,1,11.108,11.08l-11.116.01Zm-24.278.413a10.677,10.677,0,0,1,21.346-.413l.01,11.09-11.065-.009A10.641,10.641,0,0,1,569.036,356.532Zm-12.612,23.915c-.242,0-.513-.309-.513-.751v-8.824c0-.442.271-.751.513-.751h33.684v10.326H556.423Zm33.684,2.91V401.92H563.029V383.358Zm-27.079,40.461V404.83h27.079v19.738H563.661A.7.7,0,0,1,563.029,423.819Zm57.006.75H593.018V404.83h27.649v18.988A.7.7,0,0,1,620.034,424.569Zm.632-22.649H593.018V383.358h27.649Zm7.118-22.224c0,.442-.271.751-.513.751H593.018V370.122h34.254c.242,0,.513.309.513.751Z" transform="matrix(0.985, -0.174, 0.174, 0.985, -623.771, -367.363)" fill="#fff" stroke="#fff" stroke-linejoin="round" stroke-width="1"/>
      <path id="Path_790" data-name="Path 790" d="M5.176,0a5.163,5.163,0,1,0,5.176,5.163A5.169,5.169,0,0,0,5.176,0Zm0,8.373A3.21,3.21,0,1,1,8.395,5.163,3.217,3.217,0,0,1,5.176,8.373Z" transform="translate(29.051 -47.193) rotate(20)" fill="#fff"/>
      <path id="Path_791" data-name="Path 791" d="M3.225,6.436A3.218,3.218,0,1,1,6.451,3.217,3.221,3.221,0,0,1,3.225,6.436Zm0-5.219a2,2,0,1,0,2.005,2A2.005,2.005,0,0,0,3.225,1.217Z" transform="translate(29.785 -12.453) rotate(160)" fill="#fff"/>
      <path id="Path_792" data-name="Path 792" d="M3.931,7.843A3.922,3.922,0,1,1,7.863,3.922,3.926,3.926,0,0,1,3.931,7.843Zm0-6.359A2.438,2.438,0,1,0,6.376,3.922,2.443,2.443,0,0,0,3.931,1.484Z" transform="matrix(-0.914, -0.407, 0.407, -0.914, 32.82, -20.049)" fill="#fff"/>
      <path id="Path_793" data-name="Path 793" d="M4,7.991A4,4,0,1,1,8.011,4,4,4,0,0,1,4,7.991Zm0-6.48A2.484,2.484,0,1,0,6.495,4,2.49,2.49,0,0,0,4,1.511Z" transform="translate(47.661 -29.364) rotate(160)" fill="#fff"/>
      <line id="Line_240" data-name="Line 240" y1="5" x2="5" transform="translate(40.5 -21.369)" fill="none" stroke="#fff" stroke-linecap="round" stroke-width="2"/>
      <line id="Line_241" data-name="Line 241" x1="3" y1="4" transform="translate(18.5 -34.369)" fill="none" stroke="#fff" stroke-linecap="round" stroke-width="2"/>
      <line id="Line_242" data-name="Line 242" x1="3" y1="5" transform="translate(31.5 -7.369)" fill="none" stroke="#fff" stroke-linecap="round" stroke-width="2"/>
    </g>
    
  </g>
</svg>
